#!OML:ASF F:\VICON\USERDATA\INSTALL\rory3\rory3.ASF
:FULLY-SPECIFIED
:DEGREES
85
root -0.16217812272720544 17.936056735816862 30.599553514901878 -4.354601641724038 -0.5529802431800062 -5.007132808974287
lfemur -11.342782824130529 -0.6368959258454268 -14.123895504839094
ltibia 67.80149373637136
lfoot 5.521999533324242 -13.47754496009707
ltoes -1.0158579466687403
rfemur -12.494521505044641 6.240119599651049 31.538831723045718
rtibia 31.2552621536856
rfoot -10.572276580643027 -6.0224613682971295
rtoes 7.167702711711822
lowerback 9.424330959564658 -0.013075265014343529 1.968285188968379
upperback 0.8314476847554613 0.3575722718553459 2.4895397835250064
thorax -4.629966481773656 0.13860099103853699 1.1462683529534003
lowerneck -15.602952228426268 -2.3814092324655443 -2.0779467537406715
upperneck 20.502383722266035 -2.860285879876786 0.9061186899869942
head 9.153792177602238 -1.4308816593861078 0.23156329609851994
lclavicle -1.3874280458094866e-15 -1.8436986000157617e-15
lhumerus -29.995360101366558 1.498844199899354 82.15970905602448
lradius 26.610094033469288
lwrist 3.0488373401935003
lhand -25.281045084278524 27.291203940478226
lfingers 7.125019999999999
lthumb 1.6318114582508536 57.87991190272184
rclavicle -1.387428045908721e-15 -1.843698600107542e-15
rhumerus -30.315400013587393 -21.39297188076361 -77.86866723890667
rradius 22.094821391577717
rwrist 4.400848994853365
rhand -18.133618740803357 22.255064055482148
rfingers 7.125019999999999
rthumb 8.002047771631783 -7.556662453647946
86
root -0.17850883748338942 17.956791745200746 31.026223975389442 -4.164661740534958 -0.8079617821312467 -5.332144935380779
lfemur -16.14355289283786 0.7886501006716129 -13.530904318849647
ltibia 69.5591090830701
lfoot -0.3874294224014694 -10.87104542154124
ltoes -4.226944504026576
rfemur -9.6131003892726 6.201488394595249 32.249938742701495
rtibia 30.267767563826773
rfoot -11.845680046206407 -5.983006050244139
rtoes 6.553941473068363
lowerback 9.471746089173953 0.2573618497752482 2.4331875535091063
upperback 0.8115212292127915 0.7705245200380643 2.363841828583114
thorax -4.665060267576749 0.3519424017494831 0.8011827965853946
lowerneck -15.581924417389821 -2.436291360593028 -2.007267939466855
upperneck 20.397066166067404 -2.967040751811137 0.8661089059314322
head 9.083953847903373 -1.4736745422370539 0.200586114933742
lclavicle -1.3874280458160986e-15 -1.843698600022824e-15
lhumerus -30.615650498953062 2.165594945555072 82.095183193002
lradius 25.67773873107054
lwrist 2.3679350144385305
lhand -25.7099021349402 26.873317554872152
lfingers 7.125019999999999
lthumb 1.0444473047416918 57.2925685351276
rclavicle -1.3874280459167022e-15 -1.843698600115768e-15
rhumerus -29.068574210775136 -20.131250651744978 -78.68583831361642
rradius 22.746227647178724
rwrist 3.0758602716912744
rhand -18.308165478100097 21.97058412726087
rfingers 7.125019999999999
rthumb 7.773753698658963 -7.862210687975559
87
root -0.18223923574959267 17.94812348478489 31.281625907463642 -3.8637367362283146 -1.3221651173789832 -5.860898897696639
lfemur -20.67763291279411 1.996338086839863 -13.067252670254002
ltibia 68.85252586364561
lfoot -4.913011624832123 -8.876953453116002
ltoes -5.046279475812328
rfemur -7.154234288051269 5.971324711662752 33.31058101330481
rtibia 29.571427066932912
rfoot -13.19466505961616 -5.766057156314217
rtoes 6.283034014668683
lowerback 9.560793124156502 0.5786948122553102 3.1216815913214075
upperback 0.714730651288183 1.2774827140917808 2.258714979591293
thorax -4.822286783638394 0.5959614420031267 0.3589276422482499
lowerneck -15.60307414796826 -2.477720215079607 -1.944868034014569
upperneck 20.337686329593982 -3.0688386538740406 0.9452139603197105
head 9.063641517945753 -1.5063099070012018 0.21874289307046108
lclavicle -1.3874280458186433e-15 -1.8436986000250765e-15
lhumerus -31.21418603360235 2.9970057671204406 81.95207204095233
lradius 24.732124993994802
lwrist 2.686628013388538
lhand -25.916308559792945 26.417770481733744
lfingers 7.125019999999999
lthumb 0.8079291617133819 56.81353484059971
rclavicle -1.3874280459176548e-15 -1.843698600116771e-15
rhumerus -28.157888661907513 -18.849892000426365 -79.41463039812531
rradius 23.56741278207038
rwrist 1.155211493142434
rhand -18.415652993100245 21.99676272475542
rfingers 7.125019999999999
rthumb 7.615207320137886 -7.889711800775724
88
root -0.16896529791747705 17.91119480165107 31.92565560767899 -3.4300401376598586 -1.8493770344621558 -6.28085704193588
lfemur -24.479002895153833 2.598402573159034 -12.800508067522674
ltibia 65.53830779130882
lfoot -7.471242463872102 -5.899542428410912
ltoes -5.77833345434086
rfemur -6.0033614320608315 5.797271636992094 34.002258642796285
rtibia 30.091296089241073
rfoot -14.498616230292026 -5.4190342768791
rtoes 6.125941761412506
lowerback 9.753702338012943 0.8794477546008759 3.810176735498714
upperback 0.596463720108377 1.7309561894602128 2.166081958722687
thorax -4.988124688651867 0.8164501874083994 -0.15972273544736004
lowerneck -15.662846606979326 -2.5125621076815285 -1.8758604420667393
upperneck 19.9973243089908 -3.1371832128156694 0.8830256478602835
head 8.957974165462858 -1.5317876522294294 0.1732218848338038
lclavicle -1.3874280458160187e-15 -1.843698600023087e-15
lhumerus -32.00283616647198 4.055478281442823 81.63187477102535
lradius 23.898046793320777
lwrist 3.162146353454491
lhand -26.023083888327523 25.77556251610436
lfingers 7.125019999999999
lthumb 0.6765481957094932 56.11464921153694
rclavicle -1.3874280459216975e-15 -1.8436986001208758e-15
rhumerus -27.49461471930964 -18.04365661032878 -79.81182705432484
rradius 24.365728779608915
rwrist -0.3354113704641195
rhand -18.55594989606191 22.045309053595776
rfingers 7.125019999999999
rthumb 7.396351015776335 -7.960557188691577
89
root -0.13665901178744988 17.85404705664481 32.80959907200404 -2.7878227350504297 -2.490244100626455 -6.774965151227724
lfemur -27.429930825598362 2.4158491255530263 -12.392167140677596
ltibia 59.68518428317928
lfoot -9.138758819318667 -2.6199267651285743
ltoes -5.409771044224972
rfemur -4.691152186317121 5.785872227668879 34.58712533534123
rtibia 30.88429782534284
rfoot -15.308827064981106 -4.925506283899793
rtoes 6.102627584787385
lowerback 9.929148675656789 1.218524154262986 4.739558431337301
upperback 0.4883584025749148 2.2776613343181156 2.1632836263425492
thorax -5.03522981974417 1.082284366970368 -0.7464924606041323
lowerneck -15.748221981495806 -2.5447267066421833 -1.8063492251456323
upperneck 19.645321515290522 -3.216825521521351 0.9166611102745843
head 8.851679631103199 -1.5589884885226453 0.16982051637807033
lclavicle -1.3874280458084956e-15 -1.843698600016456e-15
lhumerus -32.606740840263555 5.457209757454322 81.21554705485707
lradius 22.902290661567164
lwrist 2.7035445191082967
lhand -26.54905145878848 25.74681874454935
lfingers 7.125019999999999
lthumb 0.09610644638761223 55.84145644234695
rclavicle -1.3874280459164455e-15 -1.8436986001162546e-15
rhumerus -26.807972830688303 -17.588875693980434 -80.24860660416172
rradius 24.81465344870774
rwrist -1.5246111192468828
rhand -18.653921134574343 22.117181106424674
rfingers 7.125019999999999
rthumb 7.243577768744289 -8.001415518573591
90
root -0.12477901998866536 17.809179535817286 33.12530599132575 -2.119982561983725 -3.191937425404115 -7.404073176859852
lfemur -29.185461517664812 1.2454859138016205 -11.532763940184218
ltibia 51.34665231645553
lfoot -9.017840092477464 0.1432120716124654
ltoes -4.598019269525132
rfemur -2.6949285342149647 5.9035489551956974 35.28927679817461
rtibia 30.830756316144473
rfoot -15.351393356138868 -4.870011856571033
rtoes 5.801779860696238
lowerback 10.052160535896665 1.4991593186119003 5.408573289586378
upperback 0.39685912582794475 2.7129888223631458 2.208830035144885
thorax -5.153765353196022 1.2545577751781625 -1.144263672843273
lowerneck -15.821385392682323 -2.5748252312641675 -1.7233317049897714
upperneck 19.374941212231857 -3.2923360762629654 0.9192874374819079
head 8.775588739188604 -1.5817994693483217 0.15292173741249182
lclavicle -1.387428045796637e-15 -1.8436986000054576e-15
lhumerus -33.35710699851667 6.703240556603971 80.71723240382033
lradius 21.936674108175044
lwrist 2.2905704715315007
lhand -27.513451442104916 24.073514168235675
lfingers 7.125019999999999
lthumb -0.8768326189912586 54.12639370860806
rclavicle -1.3874280459152107e-15 -1.8436986001150264e-15
rhumerus -26.468024131557282 -17.40432330222678 -80.32537483937242
rradius 25.00396554394656
rwrist -2.0223872647671044
rhand -18.680053820314512 22.48945847084496
rfingers 7.125019999999999
rthumb 7.206163149999053 -7.699130452355117
91
root -0.10875171047439658 17.797047156611075 32.97707402416096 -1.4644945878917734 -3.5742788370443117 -7.838314684240556
lfemur -29.437574139802244 -1.0675260119724033 -10.281128472705392
ltibia 40.58356932043681
lfoot -5.936396125749588 1.778719710132929
ltoes -5.968505723497811
rfemur -0.5969371911415795 6.017610153028013 35.733954373308755
rtibia 30.013489383303288
rfoot -14.845239976950928 -4.998557550040662
rtoes 5.460797590167359
lowerback 9.81991552172458 1.7663480095113422 6.142802952814164
upperback 0.34822669796000816 3.1432090759767783 2.268102460121746
thorax -5.0202985940262375 1.436297803880129 -1.625860262472817
lowerneck -15.872806661840086 -2.610611283408727 -1.6647405984591983
upperneck 19.0603362505901 -3.3958152564709714 0.9394197698540613
head 8.67124062023412 -1.6117435376801796 0.1362533156146235
lclavicle -1.387428045795035e-15 -1.843698600003855e-15
lhumerus -33.863230493403954 7.841452766540019 80.257058521276
lradius 20.791204508128473
lwrist 1.6821619709921638
lhand -28.05121835907139 23.388684702579607
lfingers 7.125019999999999
lthumb -1.412352119257699 53.3572005842843
rclavicle -1.3874280459124568e-15 -1.843698600112243e-15
rhumerus -26.32973642493156 -17.702507996295783 -80.22388098143949
rradius 24.978296743310075
rwrist -2.045019959207565
rhand -18.596137102807038 22.912950377452546
rfingers 7.125019999999999
rthumb 7.361582963936662 -7.27333534345214
